<svg width="40" height="40" viewBox="0 0 40 40" fill="none" xmlns="http://www.w3.org/2000/svg">
<path d="M9.44444 9.85147H30.5556M9.44444 16.4901H30.5556M9.44444 23.1287H17.8889M25.9702 31.9802H34.7778C35.8976 31.9802 36.9715 31.5139 37.7633 30.6839C38.5552 29.8539 39 28.7282 39 27.5544V5.42574C39 4.25196 38.5552 3.12625 37.7633 2.29627C36.9715 1.46628 35.8976 1 34.7778 1H5.22222C4.10242 1 3.02848 1.46628 2.23666 2.29627C1.44484 3.12625 1 4.25196 1 5.42574V27.5544C1 28.7282 1.44484 29.8539 2.23666 30.6839C3.02848 31.5139 4.10242 31.9802 5.22222 31.9802H11.9524C14.0636 31.9802 15.7778 33.7748 15.7778 35.9899C15.7778 37.7779 17.8382 38.6719 19.0437 37.4083L22.9851 33.2769C23.7767 32.4469 24.8505 31.9804 25.9702 31.9802Z" stroke="white" stroke-width="2" stroke-linecap="round" stroke-linejoin="round"/>
</svg>
