<svg width="40" height="40" viewBox="0 0 40 40" fill="none" xmlns="http://www.w3.org/2000/svg">
<path d="M2.68295 10.0016C8.20593 0.437568 20.4346 -2.83996 29.9988 2.68289C33.7883 4.87047 36.7558 8.24034 38.4465 12.276C40.1373 16.3116 40.4579 20.7904 39.3593 25.0257C38.7537 27.3586 35.9122 28.0157 34.2972 26.4464L34.1163 26.256L29.8293 21.3292C27.9191 19.1353 29.875 15.8254 32.6441 16.3243L32.8974 16.3815L33.884 16.6367C33.1404 13.5721 31.4035 10.8397 28.9442 8.86565C26.4849 6.89163 23.4415 5.78697 20.2885 5.72396C17.1355 5.66095 14.0504 6.64314 11.5142 8.51732C8.97794 10.3915 7.13328 13.0523 6.26788 16.0848C5.40248 19.1172 5.56499 22.3508 6.73007 25.2812C7.89515 28.2117 9.9973 30.6741 12.7086 32.2846C15.42 33.8951 18.5881 34.563 21.7188 34.1842C24.8496 33.8054 27.767 32.4012 30.016 30.1905C30.2835 29.9274 30.6001 29.7196 30.9479 29.5789C31.2957 29.4382 31.6679 29.3673 32.043 29.3704C32.4182 29.3735 32.7891 29.4505 33.1346 29.5969C33.48 29.7433 33.7932 29.9564 34.0563 30.2238C34.3194 30.4913 34.5273 30.808 34.668 31.1558C34.8087 31.5036 34.8795 31.8757 34.8764 32.2509C34.8733 32.6261 34.7964 32.9969 34.6499 33.3424C34.5035 33.6878 34.2905 34.001 34.023 34.2641C27.7744 40.4116 17.9683 41.9161 10.0018 37.3169C0.437578 31.7941 -2.84002 19.5676 2.68295 10.0016ZM20.0003 7.62109C20.7102 7.62108 21.3946 7.88534 21.9203 8.36239C22.4459 8.83943 22.7751 9.49509 22.8437 10.2016L22.8571 10.4777V18.8172L26.7803 22.7404C27.3004 23.2576 27.6016 23.9552 27.6215 24.6885C27.6414 25.4218 27.3785 26.1346 26.8871 26.6793C26.3958 27.224 25.7137 27.5588 24.9822 27.6144C24.2508 27.6699 23.526 27.442 22.958 26.9777L22.7409 26.7816L17.9797 22.0205C17.5127 21.5535 17.222 20.939 17.157 20.2818L17.1436 19.9999V10.4777C17.1436 9.72011 17.4446 8.99351 17.9803 8.45778C18.5161 7.92206 19.2427 7.62109 20.0003 7.62109Z" fill="black"/>
</svg>
