<svg width="32" height="32" viewBox="0 0 32 32" fill="none" xmlns="http://www.w3.org/2000/svg">
<g clip-path="url(#clip0_5_302)">
<path d="M31.86 15.5C31.7445 15.1169 31.5387 14.7671 31.26 14.48C31.0473 14.2505 30.7742 14.0855 30.472 14.004C30.62 14.238 30.754 14.508 30.854 14.796C30.966 15.09 31.038 15.404 31.06 15.73C31.0937 16.0117 31.0937 16.2963 31.06 16.578C30.9976 16.3692 30.9017 16.172 30.776 15.994C30.5283 15.6593 30.1974 15.3952 29.816 15.228C29.3936 15.0378 28.9157 15.0106 28.4745 15.1516C28.0332 15.2927 27.6597 15.592 27.426 15.992C27.326 16.156 27.246 16.334 27.186 16.524C24.822 12.588 20.568 9.98201 15.704 9.98201C15.456 9.98201 15.21 9.988 14.966 10.002C13.457 10.0048 11.9555 10.2155 10.504 10.628C10.38 9.76 9.24 8 4 8L5.6 13.02C4.59388 13.8333 3.74812 14.8269 3.106 15.95L-4.60073e-06 16C-4.60073e-06 16 -0.340004 24 2 24H3.08C3.81524 25.2463 4.79895 26.328 5.97 27.178L6 32H8.16C10.78 32 12 32 12 30.5V29.72C14.0173 30.0938 16.0867 30.0884 18.102 29.704L18 30.5C18 32 19.24 32 21.88 32H24V27.22C25.8754 25.9198 27.225 23.9928 27.806 21.786C27.92 21.732 28.034 21.738 28.15 21.738C28.266 21.738 28.38 21.732 28.494 21.718C28.996 21.626 29.454 21.43 29.852 21.152C30.3899 20.7714 30.8016 20.2386 31.034 19.622C31.09 19.436 31.132 19.24 31.16 19.038L31.162 19.018C31.604 18.494 31.906 17.838 32 17.116C32.0817 16.5643 32.0324 16.0011 31.856 15.472L31.86 15.5ZM7.02 15.5C7.41782 15.5 7.79935 15.658 8.08066 15.9393C8.36196 16.2206 8.52 16.6022 8.52 17C8.52 17.3978 8.36196 17.7794 8.08066 18.0607C7.79935 18.342 7.41782 18.5 7.02 18.5C6.62217 18.5 6.24064 18.342 5.95933 18.0607C5.67803 17.7794 5.52 17.3978 5.52 17C5.52 16.6022 5.67803 16.2206 5.95933 15.9393C6.24064 15.658 6.62217 15.5 7.02 15.5ZM11.76 14C11.5341 14.0724 11.2899 14.0626 11.0706 13.9722C10.8513 13.8817 10.6712 13.7166 10.562 13.506C10.528 13.4011 10.5166 13.2901 10.5286 13.1804C10.5406 13.0708 10.5758 12.9649 10.6317 12.8699C10.6877 12.7748 10.7632 12.6927 10.8532 12.6289C10.9432 12.5651 11.0457 12.5212 11.154 12.5C12.4694 12.1846 13.8195 12.0367 15.172 12.06L15.374 12.058C16.718 12.058 18.022 12.218 19.272 12.522C19.524 12.57 19.796 12.886 19.796 13.266C19.7959 13.3468 19.7831 13.4272 19.758 13.504C19.688 13.6337 19.5892 13.7456 19.4693 13.8312C19.3493 13.9169 19.2114 13.9739 19.066 13.998H18.76C17.6427 13.729 16.4972 13.5947 15.348 13.598H15.17C13.96 13.598 12.784 13.744 11.658 14.02L11.76 14ZM29.16 19.86C28.8901 20.0563 28.5811 20.192 28.254 20.258L28 20.26V19.38C28.33 19.63 28.748 19.78 29.2 19.78H29.242L29.16 19.86ZM29.32 18.5C29.1341 18.5261 28.9447 18.492 28.7796 18.4027C28.6144 18.3135 28.4821 18.1738 28.402 18.004C28.3103 17.8294 28.2626 17.635 28.263 17.4378C28.2633 17.2405 28.3117 17.0463 28.404 16.872C28.4991 16.7404 28.6391 16.6482 28.7976 16.6128C28.956 16.5774 29.122 16.6013 29.264 16.68C29.4452 16.7496 29.6011 16.8724 29.7111 17.0324C29.821 17.1923 29.8799 17.3819 29.88 17.576C29.9195 17.8533 29.9188 18.1369 29.878 18.414C29.6922 18.4498 29.5031 18.4646 29.314 18.458L29.32 18.5ZM16 6H14V5.66H14.5V3.48H14L15.1 2.38H15.5V5.66H16V6Z" fill="black"/>
<path d="M15 1.5C15.3941 1.50013 15.7843 1.57788 16.1484 1.72882C16.5124 1.87976 16.8432 2.10092 17.1217 2.37968C17.4003 2.65844 17.6213 2.98934 17.7719 3.35349C17.9226 3.71764 18.0001 4.1079 18 4.502C17.9999 4.8961 17.9221 5.28631 17.7712 5.65036C17.6202 6.0144 17.3991 6.34516 17.1203 6.62373C16.8416 6.90231 16.5107 7.12325 16.1465 7.27395C15.7824 7.42464 15.3921 7.50213 14.998 7.502C14.2021 7.50173 13.4389 7.1853 12.8763 6.62232C12.3137 6.05934 11.9977 5.29591 11.998 4.5C11.9983 3.70409 12.3147 2.94087 12.8777 2.37827C13.4407 1.81566 14.2041 1.49973 15 1.5ZM15 0C13.8065 0 12.6619 0.474106 11.818 1.31802C10.9741 2.16193 10.5 3.30653 10.5 4.5C10.5 5.69347 10.9741 6.83807 11.818 7.68198C12.6619 8.52589 13.8065 9 15 9C16.1935 9 17.3381 8.52589 18.182 7.68198C19.0259 6.83807 19.5 5.69347 19.5 4.5C19.5 3.30653 19.0259 2.16193 18.182 1.31802C17.3381 0.474106 16.1935 0 15 0Z" fill="black"/>
</g>
<defs>
<clipPath id="clip0_5_302">
<rect width="32" height="32" fill="white"/>
</clipPath>
</defs>
</svg>
