<svg width="40" height="40" viewBox="0 0 40 40" fill="none" xmlns="http://www.w3.org/2000/svg">
<path d="M35.2814 21.96C35.3637 21.32 35.4253 20.68 35.4253 20C35.4253 19.32 35.3637 18.68 35.2814 18.04L39.6198 14.74C40.0105 14.44 40.1133 13.9 39.8665 13.46L35.7543 6.54C35.5076 6.1 34.9524 5.94 34.5001 6.1L29.3804 8.1C28.3112 7.3 27.1598 6.64 25.9056 6.14L25.1242 0.84C25.0626 0.36 24.6308 0 24.1168 0H15.8923C15.3783 0 14.9465 0.36 14.8848 0.84L14.1035 6.14C12.8493 6.64 11.6979 7.32 10.6287 8.1L5.50899 6.1C5.03609 5.92 4.5015 6.1 4.25477 6.54L0.142553 13.46C-0.124741 13.9 -0.0013741 14.44 0.389286 14.74L4.72767 18.04C4.64543 18.68 4.58374 19.34 4.58374 20C4.58374 20.66 4.64543 21.32 4.72767 21.96L0.389286 25.26C-0.0013741 25.56 -0.10418 26.1 0.142553 26.54L4.25477 33.46C4.5015 33.9 5.05665 34.06 5.50899 33.9L10.6287 31.9C11.6979 32.7 12.8493 33.36 14.1035 33.86L14.8848 39.16C14.9465 39.64 15.3783 40 15.8923 40H24.1168C24.6308 40 25.0626 39.64 25.1242 39.16L25.9056 33.86C27.1598 33.36 28.3112 32.68 29.3804 31.9L34.5001 33.9C34.973 34.08 35.5076 33.9 35.7543 33.46L39.8665 26.54C40.1133 26.1 40.0105 25.56 39.6198 25.26L35.2814 21.96ZM20.0045 27C16.0363 27 12.8082 23.86 12.8082 20C12.8082 16.14 16.0363 13 20.0045 13C23.9728 13 27.2009 16.14 27.2009 20C27.2009 23.86 23.9728 27 20.0045 27Z" fill="black"/>
</svg>
