<svg width="40" height="40" viewBox="0 0 40 40" fill="none" xmlns="http://www.w3.org/2000/svg">
<path d="M6.66667 31.1111C6.66667 26.6667 15.5556 24.2222 20 24.2222C24.4444 24.2222 33.3333 26.6667 33.3333 31.1111V33.3333H6.66667M26.6667 13.3333C26.6667 15.1014 25.9643 16.7971 24.714 18.0474C23.4638 19.2976 21.7681 20 20 20C18.2319 20 16.5362 19.2976 15.286 18.0474C14.0357 16.7971 13.3333 15.1014 13.3333 13.3333C13.3333 11.5652 14.0357 9.86953 15.286 8.61929C16.5362 7.36905 18.2319 6.66667 20 6.66667C21.7681 6.66667 23.4638 7.36905 24.714 8.61929C25.9643 9.86953 26.6667 11.5652 26.6667 13.3333ZM0 4.44444V35.5556C0 36.7343 0.468252 37.8648 1.30175 38.6983C2.13524 39.5317 3.2657 40 4.44444 40H35.5556C36.7343 40 37.8648 39.5317 38.6983 38.6983C39.5317 37.8648 40 36.7343 40 35.5556V4.44444C40 3.2657 39.5317 2.13524 38.6983 1.30175C37.8648 0.468252 36.7343 0 35.5556 0H4.44444C3.2657 0 2.13524 0.468252 1.30175 1.30175C0.468252 2.13524 0 3.2657 0 4.44444Z" fill="black"/>
</svg>
