<svg width="38" height="32" viewBox="0 0 38 32" fill="none" xmlns="http://www.w3.org/2000/svg">
<g clip-path="url(#clip0_5_185)">
<path d="M32.509 7.49999C32.6416 7.49999 32.7688 7.44731 32.8626 7.35354C32.9563 7.25977 33.009 7.13259 33.009 6.99999V5.33499C33.0085 4.90072 32.8357 4.4844 32.5287 4.17733C32.2216 3.87026 31.8053 3.69752 31.371 3.69699H28.684L28.071 1.88799C28.0293 1.76496 27.9414 1.66298 27.8259 1.60363C27.7104 1.54427 27.5763 1.53221 27.452 1.56999L12.899 5.99399C12.7786 6.03793 12.6795 6.12639 12.6223 6.24114C12.5651 6.3559 12.5541 6.48821 12.5915 6.61085C12.6289 6.73349 12.712 6.83711 12.8235 6.90039C12.935 6.96366 13.0665 6.98177 13.191 6.95099L27.28 2.66699L28.623 6.63199C28.6656 6.75757 28.7563 6.86109 28.8752 6.91979C28.9941 6.97849 29.1314 6.98755 29.257 6.94499C29.3826 6.90242 29.4861 6.81171 29.5448 6.69281C29.6035 6.57391 29.6126 6.43657 29.57 6.31099L29.023 4.69599H31.372C31.724 4.69599 32.01 4.98199 32.01 5.33399V6.99999C32.009 7.27599 32.233 7.49999 32.509 7.49999Z" fill="black"/>
<path d="M36.5 15C36.3674 15 36.2402 15.0527 36.1464 15.1464C36.0527 15.2402 36 15.3674 36 15.5C36 15.6326 36.0527 15.7598 36.1464 15.8535C36.2402 15.9473 36.3674 16 36.5 16C36.851 16 37 16.149 37 16.5V22.5C37 22.851 36.851 23 36.5 23H28.5C28.149 23 28 22.851 28 22.5V17.5C28 17.149 28.149 17 28.5 17H34.5C34.6326 17 34.7598 16.9473 34.8536 16.8535C34.9473 16.7598 35 16.6326 35 16.5V10.5C35 9.58899 34.411 8.99999 33.5 8.99999H3C1.767 8.99999 1 8.23299 1 6.99999C1 5.76699 1.767 4.99999 3 4.99999H8.076L5.05 5.99799C4.98538 6.01663 4.92518 6.04811 4.87301 6.09055C4.82084 6.13299 4.77777 6.18552 4.74638 6.24499C4.71498 6.30446 4.6959 6.36966 4.69029 6.43668C4.68467 6.5037 4.69264 6.57116 4.7137 6.63503C4.73477 6.6989 4.7685 6.75786 4.81289 6.80839C4.85727 6.85891 4.91139 6.89997 4.97201 6.92909C5.03263 6.95822 5.0985 6.97482 5.16568 6.97789C5.23286 6.98097 5.29997 6.97046 5.363 6.94699L23.482 0.973992C23.5444 0.953375 23.6021 0.920673 23.6518 0.877754C23.7016 0.834835 23.7424 0.782539 23.7719 0.723852C23.8014 0.665166 23.8191 0.601237 23.8239 0.535718C23.8287 0.470198 23.8206 0.40437 23.8 0.341992C23.7794 0.279614 23.7467 0.221908 23.7038 0.172168C23.6608 0.122429 23.6085 0.0816298 23.5499 0.0521007C23.4912 0.0225717 23.4272 0.00489101 23.3617 6.8141e-05C23.2962 -0.00475472 23.2304 0.00337469 23.168 0.0239922L11.068 4.01399C11.045 4.00999 11.024 3.99999 11 3.99999H3C1.206 3.99999 0 5.20599 0 6.99999V29C0 30.794 1.206 32 3 32H33.5C34.411 32 35 31.411 35 30.5V25.5C35 25.3674 34.9473 25.2402 34.8536 25.1464C34.7598 25.0527 34.6326 25 34.5 25C34.3674 25 34.2402 25.0527 34.1464 25.1464C34.0527 25.2402 34 25.3674 34 25.5V30.5C34 30.851 33.851 31 33.5 31H3C1.767 31 1 30.233 1 29V9.31199C1.513 9.74499 2.192 9.99999 3 9.99999H33.5C33.851 9.99999 34 10.149 34 10.5V16H28.5C27.589 16 27 16.589 27 17.5V22.5C27 23.411 27.589 24 28.5 24H36.5C37.411 24 38 23.411 38 22.5V16.5C38 15.589 37.411 15 36.5 15Z" fill="black"/>
<path d="M32 21C32.5523 21 33 20.5523 33 20C33 19.4477 32.5523 19 32 19C31.4477 19 31 19.4477 31 20C31 20.5523 31.4477 21 32 21Z" fill="black"/>
</g>
<defs>
<clipPath id="clip0_5_185">
<rect width="38" height="32" fill="white"/>
</clipPath>
</defs>
</svg>
